<svg xmlns:xlink="http://www.w3.org/1999/xlink" viewBox="0 0 48 40" fill="none" xmlns="http://www.w3.org/2000/svg"><path d="M26.9521 14.425H24.1112L19.4421 22.5L18.6516 14.175H15.44L17.1199 25.875H20.1091L24.7041 18.125L25.8405 25.875H28.8543L35.5492 14.175H32.3376L27.9403 22.55L26.878 14.45L26.9521 14.425ZM12.8708 22.4L12.9696 21.95C13.0437 21.625 13.0685 21.325 13.0685 21.05C13.0685 19.625 12.105 18.925 9.65929 18.925H4.99022C4.39732 18.925 4.15028 18.725 4.15028 18.25C4.15028 17.6 4.64436 17 5.38549 17H13.7355L14.6742 14.15H5.97838C3.11271 14.15 1.92692 15.125 1.43284 17.525L1.35872 17.925C1.28461 18.325 1.2352 18.7 1.2352 19.025C1.2352 20.475 2.09985 21.125 4.39732 21.125H9.21462C9.88163 21.125 10.1287 21.3 10.1287 21.775C10.1287 22.5 9.60988 23.025 8.79465 23.025H0.765826L0 25.875H8.42409C11.1415 25.875 12.3273 24.95 12.8955 22.425L12.8708 22.4ZM39.4277 14.15C39.2795 14.15 39.1559 14.15 39.0324 14.15C36.5126 14.225 35.5739 15.15 34.981 17.925L34.1163 22.05C33.9928 22.7 33.9187 23.25 33.9187 23.7C33.9187 25.325 34.808 25.85 37.0067 25.85H38.316H44.8132C44.8132 25.775 44.8379 25.725 44.8626 25.65C45.1096 24.775 45.3567 23.875 45.6037 23C45.1343 23 44.6897 23 44.2203 23C42.4416 23 40.6876 23 38.9089 23H37.5996C37.0314 23 36.8585 22.825 36.8585 22.45C36.8585 22.35 36.8585 22.2 36.9079 22.05L37.7725 17.925C37.9207 17.225 38.2172 17 38.8595 17H47.2095C47.4812 16.05 47.7283 15.1 48 14.15H39.4524H39.4277ZM23.9629 0C16.1318 0 9.36284 4.6 6.17602 11.275H9.43695C12.352 6.25 17.7869 2.875 23.9629 2.875C30.139 2.875 35.5739 6.25 38.4889 11.275H41.7499C38.563 4.6 31.7941 0 23.9629 0ZM38.4889 28.725C35.5739 33.75 30.139 37.125 23.9629 37.125C17.7869 37.125 12.352 33.75 9.43695 28.725H6.17602C9.36284 35.4 16.1318 40 23.9629 40C31.7941 40 38.563 35.4 41.7499 28.725H38.4889Z" fill="#FFFFFF"/></svg>
